<svg id="Layer_1" xmlns="http://www.w3.org/2000/svg" viewBox="0 0 80 70"><path class="st0" d="M45 46.1h-6c-.8 0-1.5.7-1.5 1.5V61h3v-4.5H45c1.7 0 3-1.3 3-3V49c0-1.6-1.4-2.9-3-2.9zm0 7.4h-4.5V49H45v4.5zM33 46.1h3v15h-3zM30.8 46.3c-.2-.1-.5-.2-.8-.2h-9v3h6.3l-6 9.7c-.4.7-.2 1.6.5 2.1.2.1.5.2.7.2h9v-3h-6.3l6.1-9.7c.5-.7.2-1.7-.5-2.1z"/><path class="st0" d="M70.9 16.4v-6c0-.4-.1-.8-.4-1.1l-9-9c-.3-.2-.7-.3-1.1-.3H36.5C34 0 32 2 32 4.5V25l-2.4-2.4c-.3-.3-.7-.4-1.1-.4H4.6c-2.5 0-4.5 2-4.5 4.5v38.9c0 2.5 2 4.5 4.5 4.5h10.5v-3H4.6c-.8 0-1.5-.7-1.5-1.5v-39c0-.8.7-1.5 1.5-1.5H27v6c0 1.7 1.3 3 3 3h6v4.5h3v-6c0-.4-.1-.8-.4-1.1L35 28V4.5c0-.8.7-1.5 1.5-1.5h22.4v6c0 1.7 1.3 3 3 3h6v4.5h3z"/><path class="st0" d="M58.9 26.9h3c.8 0 1.5.7 1.5 1.5h3c0-2.5-2-4.5-4.5-4.5h-3c-2.5 0-4.5 2-4.5 4.5s2 4.5 4.5 4.5h3c.8 0 1.5.7 1.5 1.5s-.7 1.5-1.5 1.5h-3c-.8 0-1.5-.7-1.5-1.5h-3c0 2.5 2 4.5 4.5 4.5h3c2.5 0 4.5-2 4.5-4.5s-2-4.5-4.5-4.5h-3c-.8 0-1.5-.7-1.5-1.5s.7-1.5 1.5-1.5zM47 26.9c1.7 0 3 1.3 3 3h3c0-3.3-2.7-6-6-6s-6 2.7-6 6v3c0 3.3 2.7 6 6 6s6-2.7 6-6h-3c0 1.7-1.3 3-3 3s-3-1.3-3-3v-3c0-1.6 1.3-3 3-3zM76.9 23.9v9c0 1.6-2.3 3-3 3-.7 0-3-1.4-3-3v-9h-3v9c0 3.3 3.6 6 6 6s6-2.7 6-6v-9h-3z"/></svg>