<svg width="32" height="32" viewBox="0 0 32 32" xmlns="http://www.w3.org/2000/svg"><title>Icon-7</title><path d="M3 5v16.31h3.57l-.094 1.02.993.095 2.264.255-.155.892-.187.988.962.19 15.61 3.06.963.19.186-.988 2.67-14.08.216-.987-.993-.192-3.352-.67.186-2.005.094-.988-.962-.127-4.096-.51V5H3zm2 2h14v12H5V7zm7 2c-1.645 0-3 1.355-3 3 0 .672.215 1.31.594 1.813C8.624 14.543 8 15.69 8 17h2c0-1.19.81-2 2-2s2 .81 2 2h2c0-1.31-.625-2.457-1.594-3.188.38-.503.594-1.14.594-1.812 0-1.645-1.355-3-3-3zm8.95 0l3.05.397L22.72 22 16 21.272h4.95V9zM12 11c.563 0 1 .438 1 1 0 .563-.438 1-1 1-.563 0-1-.438-1-1 0-.563.438-1 1-1zm13.76 2l2.24.43L25.665 25 12 22.43v-.063l11.673 1.225.996.122.093-.98L25.76 13z" fill-rule="nonzero" fill="#BDC4D4"/></svg>