<svg width="32" height="32" viewBox="0 0 32 32" xmlns="http://www.w3.org/2000/svg"><title>Icon-3</title><path d="M15.688 5l-.47.25-13.5 7L0 13.125l1.688.844v8.436c-.598.348-1 .98-1 1.72 0 1.104.894 2 2 2 1.105 0 2-.896 2-2 0-.74-.403-1.372-1-1.72V15l2 1.03v5.095c0 .44.203.84.437 1.094.234.253.52.405.813.56.59.31 1.29.53 2.156.72 1.734.387 4.047.625 6.594.625 2.546 0 4.86-.238 6.593-.625.868-.19 1.568-.41 2.157-.72.293-.155.58-.307.813-.56.234-.255.438-.654.438-1.095V16.03L29.655 14l1.72-.875-1.72-.875-13.5-7-.468-.25zm0 2.25L27 13.125l-1.78.906c-.228-.237-.5-.413-.782-.56-.586-.31-1.29-.53-2.157-.72-1.73-.387-4.034-.625-6.593-.625-2.558 0-4.863.238-6.593.625-.867.19-1.57.41-2.156.72-.282.147-.555.323-.782.56l-1.78-.905 11.31-5.875zm0 6.875c2.44 0 4.636.223 6.156.563.758.167 1.367.363 1.687.53.103.055.118.095.157.126v3.812c-.417-.152-.875-.29-1.406-.406-1.733-.387-4.046-.625-6.593-.625-2.546 0-4.86.238-6.593.625-.53.117-.99.254-1.406.406v-3.812c.04-.03.054-.07.156-.125.32-.17.93-.365 1.687-.533 1.52-.34 3.716-.562 6.158-.562zm0 6c2.425 0 4.632.223 6.156.563.633.14 1.03.29 1.375.437-.345.148-.743.297-1.376.438-1.524.34-3.73.562-6.157.562-2.425 0-4.632-.223-6.156-.563-.632-.14-1.03-.29-1.374-.437.344-.148.742-.297 1.375-.438 1.525-.34 3.732-.562 6.158-.562z" fill-rule="nonzero" fill="#BDC4D4"/></svg>