<svg width="32" height="32" viewBox="0 0 32 32" xmlns="http://www.w3.org/2000/svg"><title>Icon-4</title><path d="M16 4c-3.855 0-7 3.145-7 7 0 2.406 1.23 4.54 3 6-3.484 1.324-6 4.875-6 9h2c0-3.527 2.27-6.504 5-8l3 3-2 5 2 2 2-2-2-5 3-3c2.73 1.496 5 4.473 5 8h2c0-4.125-2.516-7.676-6-9 1.77-1.46 3-3.594 3-6 0-3.855-3.145-7-7-7zm0 2c2.773 0 5 2.227 5 5s-2.227 5-5 5-5-2.227-5-5 2.227-5 5-5zm8 1v2c1.805.393 3 1.69 3 3 0 2.213-1.195 3.512-3 4v2c2.797.563 5 3.078 5 6h2c0-3.032-1.78-5.735-4-7 1.113-1.076 2-2.657 2-5 0-2.43-2.05-4.596-5-5zM8 7c-2.91.412-5 2.614-5 5 0 2.338.887 3.92 2 5-2.22 1.263-4 3.967-4 7h2c0-2.924 2.203-5.44 5-6v-2c-1.805-.492-3-1.79-3-4 0-1.284 1.22-2.598 3-3V7z" fill-rule="nonzero" fill="#BDC4D4"/></svg>