<svg width="32" height="32" viewBox="0 0 32 32" xmlns="http://www.w3.org/2000/svg"><title>Icon-6</title><path d="M7 4c-.94 0-1.914.355-2.688 1.03C3.54 5.708 3 6.747 3 8c0 1.063.445 1.97 1 2.688.555.718 1.227 1.285 1.844 1.843C7.078 13.65 8 14.567 8 16c0 .152-.148.52-.344.813-.195.292-.375.468-.375.468l1.44 1.407s.32-.32.624-.78c.26-.395.547-.903.625-1.563.112.324.22.656.342.968.688 1.774 1.48 3.364 2.376 4.563.324.438.66.824 1.03 1.156C11.653 23.18 10 24.9 10 27v1h12v-1c0-2.125-1.684-3.852-3.78-3.97.374-.33.733-.72 1.06-1.155.9-1.195 1.68-2.79 2.376-4.563.13-.332.254-.687.375-1.03.068.687.357 1.218.626 1.624.305.46.625.782.625.782l1.44-1.407s-.18-.175-.376-.468C24.148 16.52 24 16.152 24 16c0-1.434.922-2.352 2.156-3.47.617-.557 1.29-1.124 1.844-1.842.555-.72 1-1.626 1-2.688 0-1.254-.54-2.293-1.313-2.97C26.915 4.356 25.942 4 25 4c-1.277 0-2.152.582-2.625 1H9.625C9.152 4.582 8.277 4 7 4zm0 2c.473 0 .777.148 1 .28.027 2.04.38 4.353.938 6.626-.532-.72-1.196-1.316-1.782-1.844-.633-.57-1.21-1.097-1.593-1.593C5.18 8.972 5 8.542 5 8c0-.7.273-1.133.656-1.47C6.04 6.196 6.566 6 7 6zm18 0c.434 0 .96.195 1.344.53.383.337.656.77.656 1.47 0 .543-.18.973-.563 1.47-.382.495-.96 1.022-1.593 1.592-.598.54-1.274 1.16-1.813 1.907.575-2.29.943-4.622.97-6.69.223-.132.527-.28 1-.28zM10.125 7h11.75c-.152 2.973-.922 6.598-2.094 9.594-.647 1.656-1.397 3.093-2.124 4.062-.726.97-1.39 1.344-1.687 1.344-.294 0-.935-.375-1.658-1.344-.722-.968-1.48-2.402-2.124-4.062-1.165-3-1.91-6.637-2.063-9.594zM15 10v5h2v-5h-2zm-1 15h4c.72 0 1.21.44 1.563 1h-7.125c.35-.56.843-1 1.562-1z" fill-rule="nonzero" fill="#BDC4D4"/></svg>