<svg width="32" height="32" viewBox="0 0 32 32" xmlns="http://www.w3.org/2000/svg"><title>Icon-1</title><path d="M15.914 3c-.46 0-.937.027-1.453.086l.22 1.984c.445-.047.847-.07 1.234-.07 6.066 0 11 4.934 11 11s-4.934 11-11 11c-.387 0-.785-.023-1.223-.074l-.22 1.988c.51.06.983.086 1.444.086 7.168 0 13-5.832 13-13s-5.832-13-13-13zm-4.293.738c-.917.32-1.796.75-2.62 1.266l1.066 1.69c.696-.436 1.442-.796 2.22-1.07L11.62 3.74zm-4.9 3.07c-.66.665-1.27 1.434-1.806 2.286l1.695 1.062c.452-.726.968-1.375 1.523-1.933L6.72 6.81zM14.913 10v8.586l-2.344-2.348-1.418 1.418 4.762 4.758 4.762-4.758-1.418-1.418-2.344 2.348V10h-2zM3.648 11.715c-.324.937-.543 1.89-.648 2.836l1.984.22c.09-.793.278-1.602.555-2.395l-1.892-.66zm1.34 5.52L3 17.456c.11.95.328 1.902.656 2.84l1.887-.664c-.277-.793-.465-1.598-.555-2.4zm1.62 4.617l-1.686 1.066c.535.848 1.14 1.617 1.805 2.28l1.414-1.417c-.558-.557-1.074-1.206-1.53-1.928zm3.466 3.46L9.008 27c.824.52 1.703.94 2.625 1.266l.656-1.89c-.778-.27-1.524-.63-2.216-1.064z" fill-rule="nonzero" fill="#BDC4D4"/></svg>