<svg width="32" height="32" viewBox="0 0 32 32" xmlns="http://www.w3.org/2000/svg"><title>Icon-5</title><path d="M16 5c-4.117 0-7.36 3.13-7.813 7.125-1.792.3-3.246 1.52-3.843 3.22C1.884 16.054 0 18.25 0 21c0 3.324 2.676 6 6 6h20c3.324 0 6-2.676 6-6 0-1.762-.855-3.336-2.094-4.438-.23-3.515-3.035-6.316-6.562-6.5C22.14 7.133 19.38 5 16 5zm0 2c2.762 0 4.973 1.77 5.75 4.28l.22.72H23c2.754 0 5 2.246 5 5v.5l.406.313C29.352 18.52 30 19.733 30 21c0 2.277-1.723 4-4 4H6c-2.277 0-4-1.723-4-4 0-2.02 1.45-3.586 3.28-3.906l.657-.125.125-.657C6.362 14.964 7.556 14 9 14h1v-1c0-3.37 2.63-6 6-6zm0 5.594l-.72.687-4 4 1.44 1.44L15 16.437V23h2v-6.563l2.28 2.282 1.44-1.44-4-4-.72-.686z" fill-rule="nonzero" fill="#BDC4D4"/></svg>