<svg width="60" height="60" xmlns="http://www.w3.org/2000/svg" xmlns:xlink="http://www.w3.org/1999/xlink"><use xlink:href="#path0_fill"/><defs><path id="path0_fill" d="M54.375 15H52.5v-1.875A5.625 5.625 0 0 0 46.875 7.5H45V5.625A5.625 5.625 0 0 0 39.375 0H5.625A5.625 5.625 0 0 0 0 5.625v33.75A5.625 5.625 0 0 0 5.625 45H7.5v1.875a5.625 5.625 0 0 0 5.625 5.625H15v1.875A5.625 5.625 0 0 0 20.625 60h33.75A5.625 5.625 0 0 0 60 54.375v-33.75A5.625 5.625 0 0 0 54.375 15zM5.625 41.25a1.875 1.875 0 0 1-1.875-1.875V5.625c0-1.036.84-1.875 1.875-1.875h33.75c1.036 0 1.875.84 1.875 1.875v33.75c0 1.036-.84 1.875-1.875 1.875H5.625zm7.5 7.5a1.875 1.875 0 0 1-1.875-1.875V45h28.125A5.625 5.625 0 0 0 45 39.375V11.25h1.875c1.036 0 1.875.84 1.875 1.875v33.75c0 1.036-.84 1.875-1.875 1.875h-33.75zm43.125 5.625c0 1.036-.84 1.875-1.875 1.875h-33.75a1.875 1.875 0 0 1-1.875-1.875V52.5h28.125a5.625 5.625 0 0 0 5.625-5.625V18.75h1.875c1.036 0 1.875.84 1.875 1.875v33.75z"/></defs></svg>