<svg width="127" height="80" xmlns="http://www.w3.org/2000/svg" xmlns:xlink="http://www.w3.org/1999/xlink"><use xlink:href="#path0_fill" fill="#DADADA"/><defs><path id="path0_fill" d="M115.444 40.377c.44-2.17.673-4.415.673-6.715C116.117 15.072 101.045 0 82.454 0 68.668 0 56.823 8.293 51.62 20.159a25.361 25.361 0 0 0-13.892-4.133c-13.483 0-24.493 10.47-25.412 23.72C5.054 43.078 0 50.394 0 58.907 0 70.557 9.444 80 21.093 80H51.56c1.494 0 1.566-1.658 1.566-1.658V64.81a2.108 2.108 0 0 0-2.102-2.102h-5.763c-1.156 0-1.54-.76-.851-1.688l17.567-23.715c.688-.929 1.814-.929 2.503 0L82.047 61.02c.688.928.306 1.688-.85 1.688h-5.764a2.108 2.108 0 0 0-2.102 2.102v13.56S73.42 80 74.966 80h30.399c11.649 0 21.093-9.444 21.093-21.093 0-7.997-4.453-14.955-11.014-18.53z"/></defs></svg>